<?xml version="1.0" encoding="utf-8"?>
<!-- Generator: Adobe Illustrator 19.2.0, SVG Export Plug-In . SVG Version: 6.00 Build 0)  -->
<svg version="1.1" id="svg" xmlns="http://www.w3.org/2000/svg" xmlns:xlink="http://www.w3.org/1999/xlink" x="0px" y="0px"
	 viewBox="0 0 64 64" style="enable-background:new 0 0 64 64;" xml:space="preserve">
<style type="text/css">
	.st0{fill:#C7C7C7;}
</style>
<path class="st0" d="M54.2,28.1c-1.9,12.5-3.7,24.9-6.2,23.6c-7.2-3.9-8.9-45.5-17.5-43.6c-6.8,1.5-4.1,42.4-8.6,43.2
	C17.5,52.2,7.8,15.4,5.6,13.6c-2.3-1.8-8.4,2.1-1.1,8.2c7.7,6.3,13.9,38.2,18.4,37.4s1.6-42.4,8.6-43.2c3.5-0.4,6.1,10.5,8.6,21.5
	c2.5,10.8,5,21.6,8.3,21.5c4.5-0.1,7.4-42.7,12.8-46.8C65.4,9,61,4.5,61,4.5c-0.1,0-0.2,0-0.3,0C58,4.4,56,16.3,54.2,28.1L54.2,28.1
	z"/>
</svg>
